<?xml version="1.0" encoding="iso-8859-1"?>
<!-- Uploaded to: SVG Repo, www.svgrepo.com, Generator: SVG Repo Mixer Tools -->
<!DOCTYPE svg PUBLIC "-//W3C//DTD SVG 1.1//EN" "http://www.w3.org/Graphics/SVG/1.1/DTD/svg11.dtd">
<svg fill="#000000" height="800px" width="800px" version="1.1" id="Capa_1" xmlns="http://www.w3.org/2000/svg" xmlns:xlink="http://www.w3.org/1999/xlink" 
	 viewBox="0 0 229.12 229.12" xml:space="preserve">
<g>
	<path d="M225.538,109.765l-57.995-17.152l28.88-53.136c1.058-1.946,0.709-4.357-0.857-5.923s-3.976-1.915-5.923-0.857
		l-53.136,28.88L119.355,3.582C118.727,1.458,116.775,0,114.56,0s-4.167,1.458-4.795,3.582L92.614,61.577l-53.136-28.88
		c-1.947-1.058-4.356-0.709-5.923,0.857c-1.566,1.566-1.915,3.977-0.857,5.923l28.88,53.137L3.582,109.765
		C1.458,110.394,0,112.345,0,114.56s1.458,4.167,3.582,4.795l57.995,17.151l-28.88,53.137c-1.058,1.946-0.709,4.357,0.857,5.923
		c1.567,1.567,3.978,1.916,5.923,0.857l53.136-28.88l17.152,57.995c0.628,2.125,2.58,3.582,4.795,3.582s4.167-1.458,4.795-3.582
		l17.152-57.995l53.136,28.88c0.751,0.408,1.572,0.607,2.386,0.607c1.295,0,2.575-0.503,3.537-1.464
		c1.566-1.566,1.916-3.977,0.857-5.923l-28.88-53.136l57.995-17.152c2.125-0.628,3.582-2.58,3.582-4.795
		S227.663,110.394,225.538,109.765z M114.56,22.63l12.962,43.829l-12.962,7.045l-12.962-7.045L114.56,22.63z M22.63,114.56
		l43.83-12.962l7.045,12.962l-7.045,12.962L22.63,114.56z M114.56,206.49l-12.962-43.829l12.962-7.045l12.962,7.045L114.56,206.49z
		 M135.828,155.793c-0.005-0.003-0.01-0.005-0.015-0.008l-18.865-10.253c-0.745-0.405-1.566-0.607-2.388-0.607
		s-1.643,0.202-2.388,0.607l-18.864,10.253c-0.005,0.003-0.011,0.006-0.016,0.009l-43.736,23.771l34.033-62.617
		c0.809-1.489,0.809-3.287,0-4.775L49.556,49.556l43.737,23.772c0.005,0.002,0.009,0.005,0.014,0.008l18.865,10.254
		c1.489,0.81,3.286,0.81,4.775,0l18.866-10.254c0.004-0.002,0.008-0.005,0.012-0.007l43.738-23.772l-23.758,43.711
		c-0.011,0.021-0.023,0.042-0.035,0.064l-10.241,18.842c-0.809,1.489-0.809,3.287,0,4.775l34.033,62.617L135.828,155.793z
		 M162.66,127.522l-7.045-12.962l7.045-12.962l43.829,12.962L162.66,127.522z"/>
	<circle cx="114.56" cy="114.56" r="20.406"/>
</g>
</svg>